<?xml version="1.0" encoding="iso-8859-1"?>
<!-- Generator: Adobe Illustrator 18.0.0, SVG Export Plug-In . SVG Version: 6.00 Build 0)  -->
<!DOCTYPE svg PUBLIC "-//W3C//DTD SVG 1.1//EN" "http://www.w3.org/Graphics/SVG/1.1/DTD/svg11.dtd">
<svg version="1.1" id="Capa_1" xmlns="http://www.w3.org/2000/svg" xmlns:xlink="http://www.w3.org/1999/xlink" x="0px" y="0px"
	 viewBox="0 0 478.823 478.823" style="enable-background:new 0 0 478.823 478.823;" xml:space="preserve">
<g>
	<g>
		<path d="M239.415,91.71c25.313,0,45.838-20.533,45.838-45.854C285.252,20.526,264.728,0,239.415,0
			c-25.321,0-45.855,20.526-45.855,45.855C193.559,71.177,214.093,91.71,239.415,91.71z"/>
	</g>
	<g>
		<path d="M361.531,248.864L310.425,131.66c-5.15-11.818-15.991-19.66-28.424-21.771c-1.881-0.496-83.293-0.504-85.238,0.017
			c-12.416,2.117-23.234,9.959-28.375,21.762l-51.1,117.188c-3.063,7.038-2.377,15.141,1.827,21.564
			c4.204,6.425,11.361,10.291,19.038,10.291c9.055,0,17.242-5.361,20.865-13.66l19.258-44.161v231.101
			c0,13.716,11.117,24.832,24.833,24.832c13.724,0,24.84-11.116,24.84-24.832V298.104h22.929v155.887
			c0,13.716,11.117,24.832,24.832,24.832c13.707,0,24.825-11.116,24.825-24.824V222.874l19.267,44.186
			c3.621,8.299,11.809,13.66,20.865,13.66c7.675,0,14.833-3.866,19.037-10.29C363.91,264.012,364.601,255.902,361.531,248.864z"/>
	</g>
</g>
<g>
</g>
<g>
</g>
<g>
</g>
<g>
</g>
<g>
</g>
<g>
</g>
<g>
</g>
<g>
</g>
<g>
</g>
<g>
</g>
<g>
</g>
<g>
</g>
<g>
</g>
<g>
</g>
<g>
</g>
</svg>
